<svg xmlns="http://www.w3.org/2000/svg" xmlns:svg="http://www.w3.org/2000/svg" xmlns:xlink="http://www.w3.org/1999/xlink" id="svg8" width="210mm" height="297mm" version="1.1" viewBox="0 0 210 297"><defs id="defs2"><linearGradient id="linearGradient964"><stop style="stop-color:#0cf;stop-opacity:1" id="stop960" offset="0"/><stop style="stop-color:#06f;stop-opacity:1" id="stop962" offset="1"/></linearGradient><linearGradient id="linearGradient948"><stop style="stop-color:#2ad4ff;stop-opacity:1" id="stop944" offset="0"/><stop style="stop-color:#2a7fff;stop-opacity:1" id="stop946" offset="1"/></linearGradient><linearGradient id="linearGradient936"><stop id="stop932" offset="0" style="stop-color:#0cf;stop-opacity:1"/><stop id="stop934" offset="1" style="stop-color:#2a7fff;stop-opacity:1"/></linearGradient><linearGradient id="linearGradient898"><stop id="stop894" offset="0" style="stop-color:#2a7fff;stop-opacity:1"/><stop id="stop896" offset="1" style="stop-color:#0cf;stop-opacity:1"/></linearGradient><linearGradient id="linearGradient888"><stop id="stop884" offset="0" style="stop-color:#0cf;stop-opacity:1"/><stop id="stop886" offset="1" style="stop-color:#0cf;stop-opacity:1"/></linearGradient><linearGradient id="linearGradient852"><stop id="stop848" offset="0" style="stop-color:#0cf;stop-opacity:1"/><stop id="stop850" offset="1" style="stop-color:#2a7fff;stop-opacity:1"/></linearGradient><linearGradient id="linearGradient993"><stop style="stop-color:#2a7fff;stop-opacity:1" id="stop989" offset="0"/><stop style="stop-color:#2a7fff;stop-opacity:1" id="stop991" offset="1"/></linearGradient><linearGradient id="linearGradient995" x1="66.951" x2="66.336" y1="104.461" y2="109.668" gradientUnits="userSpaceOnUse" xlink:href="#linearGradient993"/><linearGradient id="linearGradient854" x1="77.167" x2="64.372" y1="115.715" y2="112.004" gradientUnits="userSpaceOnUse" xlink:href="#linearGradient852"/><linearGradient id="linearGradient890" x1="62.961" x2="77.488" y1="115.883" y2="107.314" gradientUnits="userSpaceOnUse" xlink:href="#linearGradient888"/><linearGradient id="linearGradient900" x1="68.229" x2="68.164" y1="112.732" y2="118.555" gradientUnits="userSpaceOnUse" xlink:href="#linearGradient898"/><linearGradient id="linearGradient908" x1="68.707" x2="75.819" y1="113.065" y2="117.913" gradientUnits="userSpaceOnUse" xlink:href="#linearGradient898"/><linearGradient id="linearGradient930" x1="77.401" x2="68.67" y1="106.368" y2="120.358" gradientUnits="userSpaceOnUse" xlink:href="#linearGradient964"/><linearGradient id="linearGradient938" x1="61.163" x2="64.928" y1="105.11" y2="109.045" gradientUnits="userSpaceOnUse" xlink:href="#linearGradient936"/><linearGradient id="linearGradient942" x1="63.367" x2="71.136" y1="106.865" y2="104.89" gradientUnits="userSpaceOnUse" xlink:href="#linearGradient948"/></defs><metadata id="metadata5"/><g id="layer2" style="display:inline"><g id="g958" transform="matrix(10.185345,0,0,10.412473,-593.68883,-1032.1515)"><path id="path918" d="m 65.428762,109.91943 c -0.79474,-2.58086 -5.285936,-1.9546 -6.036655,-2.01063 0.842596,-0.40914 1.604061,-0.74639 3.341118,-1.97728 3.346321,-2.37122 6.889189,-1.85409 8.663362,-0.91242 -4.85033,0.18036 -3.926305,2.76518 -3.211896,4.12714 -0.908518,0.25814 -2.342683,0.64782 -2.755929,0.77319 z" style="fill:url(#linearGradient938);fill-opacity:1;stroke:none;stroke-width:.065;stroke-linecap:butt;stroke-linejoin:miter;stroke-miterlimit:4;stroke-dasharray:none;stroke-opacity:1"/><path style="opacity:1;fill:url(#linearGradient854);fill-opacity:1;stroke:none;stroke-width:.065;stroke-linecap:butt;stroke-linejoin:miter;stroke-miterlimit:4;stroke-dasharray:none;stroke-opacity:1" id="path997" d="m 77.401381,106.36805 c -1.746608,2.25673 -4.650524,5.30573 -7.828693,5.70736 -3.17817,0.40163 -6.208039,-0.0433 -6.909882,2.27202 -0.64633,2.1322 1.626883,4.12293 3.984589,3.64314 2.518769,-0.51257 1.974803,-3.30514 0.597137,-5.20681 1.046467,-0.0587 0.851808,-0.0435 2.626388,-0.131 2.645109,2.20549 3.521857,2.8343 8.143023,6.05209 -3.561162,-0.36484 -4.857257,-0.69982 -7.41144,-2.19429 0.661668,1.62462 2.075907,5.31186 2.382248,8.17285 -1.47315,-2.07065 -2.031632,-2.83161 -4.314667,-4.32544 -2.924418,-1.9135 -5.29286,-1.97828 -6.663677,-4.79745 -1.367857,-2.81308 0.442686,-4.83945 3.682518,-5.71701 4.629957,-1.2541 8.619281,-2.4431 11.712456,-3.47546 z"/><path style="opacity:1;fill:url(#linearGradient908);fill-opacity:1;stroke:none;stroke-width:.065;stroke-linecap:butt;stroke-linejoin:miter;stroke-miterlimit:4;stroke-dasharray:none;stroke-opacity:1" id="path906" d="m 67.244532,112.78376 c 1.046467,-0.0587 0.851808,-0.0435 2.626388,-0.131 2.645109,2.20549 3.521857,2.8343 8.143023,6.05209 -4.644893,-0.32503 -8.159344,-1.66506 -10.769411,-5.92109 z"/><path id="path926" d="m 77.401381,106.36805 c -1.746608,2.25673 -4.650524,5.30573 -7.828693,5.70736 -3.17817,0.40163 -6.208039,-0.0433 -6.909882,2.27202 -0.64633,2.1322 1.626883,4.12293 3.984589,3.64314 2.518769,-0.51257 1.974803,-3.30514 0.597137,-5.20681 1.046467,-0.0587 0.851808,-0.0435 2.626388,-0.131 2.645109,2.20549 3.521857,2.8343 8.143023,6.05209 -3.561162,-0.36484 -4.857257,-0.69982 -7.41144,-2.19429 0.661668,1.62462 2.075907,5.31186 2.382248,8.17285 -1.47315,-2.07065 -2.031632,-2.83161 -4.314667,-4.32544 -2.924418,-1.9135 -5.29286,-1.97828 -6.663677,-4.79745 -1.367857,-2.81308 0.442686,-4.83945 3.682518,-5.71701 4.629957,-1.2541 8.619281,-2.4431 11.712456,-3.47546 z" style="opacity:1;fill:url(#linearGradient930);fill-opacity:1;stroke:none;stroke-width:.065;stroke-linecap:butt;stroke-linejoin:miter;stroke-miterlimit:4;stroke-dasharray:none;stroke-opacity:1"/><path id="path892" d="m 67.244532,112.78376 c 1.046467,-0.0587 0.851808,-0.0435 2.626388,-0.131 2.645109,2.20549 3.521857,2.8343 8.143023,6.05209 -4.644893,-0.32503 -8.159344,-1.66506 -10.769411,-5.92109 z" style="opacity:1;fill:url(#linearGradient900);fill-opacity:1;stroke:none;stroke-width:.065;stroke-linecap:butt;stroke-linejoin:miter;stroke-miterlimit:4;stroke-dasharray:none;stroke-opacity:1"/><path style="fill:url(#linearGradient942);fill-opacity:1;stroke:none;stroke-width:.065;stroke-linecap:butt;stroke-linejoin:miter;stroke-miterlimit:4;stroke-dasharray:none;stroke-opacity:1" id="path940" d="m 59.392107,107.9088 c 0.842596,-0.40914 1.604061,-0.74639 3.341118,-1.97728 3.346321,-2.37122 6.889189,-1.85409 8.663362,-0.91242 -4.85033,0.18036 -4.225378,1.1257 -4.243278,1.86679 -3.222572,-0.66446 -4.163494,0.2396 -7.761202,1.02291 z"/><path style="fill:url(#linearGradient995);fill-opacity:1;stroke:none;stroke-width:.065;stroke-linecap:butt;stroke-linejoin:miter;stroke-miterlimit:4;stroke-dasharray:none;stroke-opacity:1" id="path979" d="m 71.396587,105.0191 c -4.85033,0.18036 -3.926305,2.76518 -3.211896,4.12714 -0.566006,0.16082 -1.179475,0.34403 -1.936109,0.53991 -3.052938,-5.32116 2.656266,-6.01341 5.148005,-4.66705 z"/><path id="path880" d="m 62.879799,116.88614 c -2.373486,-2.98949 -1.93525,-5.72962 2.712379,-7.1533 4.586439,-1.40494 8.716028,-2.33243 11.809203,-3.36479 -8.347338,3.11114 -18.799839,5.18999 -14.521582,10.51809 z" style="opacity:1;fill:url(#linearGradient890);fill-opacity:1;stroke:none;stroke-width:.065;stroke-linecap:butt;stroke-linejoin:miter;stroke-miterlimit:4;stroke-dasharray:none;stroke-opacity:1"/></g></g></svg>