<svg xmlns="http://www.w3.org/2000/svg" xmlns:xlink="http://www.w3.org/1999/xlink" width="48" height="48" version="1.1"><defs><linearGradient id="linearGradient4485"><stop style="stop-color:#000;stop-opacity:1" offset="0"/><stop style="stop-color:#000;stop-opacity:.384" offset="1"/></linearGradient><linearGradient id="linearGradient4477"><stop style="stop-color:#f7f7f7;stop-opacity:1" offset="0"/><stop style="stop-color:#f7f7f7;stop-opacity:.392" offset="1"/></linearGradient><linearGradient id="b" x1="17" x2="44" y1="11" y2="41" gradientTransform="translate(0 1004.36)" gradientUnits="userSpaceOnUse"><stop/><stop offset="1" stop-opacity="0"/></linearGradient><linearGradient id="c" x2="0" y1="40" y2="6" gradientTransform="matrix(0.94118,0,0,0.91176,1.412,2.08)" gradientUnits="userSpaceOnUse"><stop stop-color="#b1b1b1"/><stop offset="1" stop-color="#ddd"/></linearGradient><linearGradient id="d" x1="23" x2="40" y1="21" y2="39" gradientUnits="userSpaceOnUse" xlink:href="#b"/><linearGradient id="e" x2="0" y1="1040.95" y2="1012.95" gradientTransform="translate(0,-1004.36)" gradientUnits="userSpaceOnUse"><stop stop-color="#f2f2f2"/><stop offset="1" stop-color="#fff"/></linearGradient><linearGradient id="d-3" x1="49.088" x2="49" y1="26.497" y2="20.735" gradientTransform="matrix(-1,0,0,-1,79.99999,38)" gradientUnits="userSpaceOnUse"><stop/><stop offset="1" stop-color="#655c6f" stop-opacity="0"/></linearGradient><linearGradient id="linearGradient4483" x1="34.237" x2="30.045" y1="10.71" y2="5.495" gradientUnits="userSpaceOnUse" xlink:href="#linearGradient4477"/><linearGradient id="linearGradient4491" x1="13" x2="13" y1="44.006" y2="3.172" gradientUnits="userSpaceOnUse" xlink:href="#linearGradient4485"/></defs><rect width="32" height="40" x="8" y="4" style="fill:url(#c);fill-rule:evenodd" rx="1" ry="1"/><path d="m 38,37 -28,5 1.786,1.963 28.21,0.037 0,-36 -2,-2 z" style="opacity:.2;fill:url(#d);fill-rule:evenodd"/><path d="m 10,6 0,36 28,0 0,-36 z" style="fill:url(#e);fill-rule:evenodd"/><rect width="28" height="1.016" x="10" y="41" style="fill:#1b1b1b;fill-rule:evenodd;fill-opacity:1;opacity:.437"/><rect style="fill:#bcbcbc;fill-rule:evenodd" width="8" height="1" x="15" y="14"/><rect style="fill:#bcbcbc;fill-rule:evenodd" width="5" height="1" x="24" y="14"/><rect style="fill:#bcbcbc;fill-rule:evenodd" width="6" height="1" x="15" y="16"/><rect style="fill:#bcbcbc;fill-rule:evenodd" width="3" height="1" x="22" y="16"/><rect style="fill:#bcbcbc;fill-rule:evenodd" width="4.03" height="1" x="15" y="18"/><rect style="fill:#bcbcbc;fill-rule:evenodd" width="7" height="1" x="20" y="18"/><rect style="fill:#bcbcbc;fill-opacity:1;fill-rule:evenodd" width="5" height="1" x="15" y="10"/><rect style="fill:#bcbcbc;fill-opacity:1;fill-rule:evenodd" width="6" height="1" x="26" y="10"/><rect style="fill:#bcbcbc;fill-opacity:1;fill-rule:evenodd" width="7" height="1" x="15" y="12"/><rect style="fill:#bcbcbc;fill-opacity:1;fill-rule:evenodd" width="3" height="1" x="23" y="12"/><rect style="fill:#bcbcbc;fill-rule:evenodd" width="7" height="1" x="15" y="-27" transform="scale(1,-1)"/><rect style="fill:#bcbcbc;fill-rule:evenodd" width="3" height="1" x="23" y="-27" transform="scale(1,-1)"/><rect style="fill:#bcbcbc;fill-rule:evenodd" width="4.03" height="1" x="15" y="-25" transform="scale(1,-1)"/><rect style="fill:#bcbcbc;fill-rule:evenodd" width="8" height="1" x="20" y="-25" transform="scale(1,-1)"/><rect width="10" height="1" x="15" y="-23" style="fill:#bcbcbc;fill-opacity:1;fill-rule:evenodd" transform="scale(1,-1)"/><rect width="5" height="1" x="26" y="-23" style="fill:#bcbcbc;fill-opacity:1;fill-rule:evenodd" transform="scale(1,-1)"/><rect style="color:#000;clip-rule:nonzero;display:inline;overflow:visible;visibility:visible;opacity:.082;isolation:auto;mix-blend-mode:normal;color-interpolation:sRGB;color-interpolation-filters:linearRGB;solid-color:#000;solid-opacity:1;fill:url(#linearGradient4491);fill-opacity:1;fill-rule:nonzero;stroke:none;stroke-width:1px;stroke-linecap:butt;stroke-linejoin:miter;stroke-miterlimit:4;stroke-dasharray:none;stroke-dashoffset:0;stroke-opacity:1;marker:none;color-rendering:auto;image-rendering:auto;shape-rendering:auto;text-rendering:auto;enable-background:accumulate" width="1" height="35" x="12" y="6"/><rect width="10" height="1" x="15" y="30" style="fill:#bcbcbc;fill-opacity:1;fill-rule:evenodd"/><rect width="7" height="1" x="15" y="32" style="fill:#bcbcbc;fill-opacity:1;fill-rule:evenodd"/><rect width="4" height="1" x="23" y="32" style="fill:#bcbcbc;fill-opacity:1;fill-rule:evenodd"/><rect width="4" height="1" x="15" y="34" style="fill:#bcbcbc;fill-opacity:1;fill-rule:evenodd"/><rect width="7" height="1" x="15" y="36" style="fill:#bcbcbc;fill-opacity:1;fill-rule:evenodd"/><rect width="4" height="1" x="26" y="16" style="fill:#bcbcbc;fill-rule:evenodd"/><rect width="4" height="1" x="21" y="10" style="fill:#bcbcbc;fill-opacity:1;fill-rule:evenodd"/><rect width="7" height="1" x="27" y="12" style="fill:#bcbcbc;fill-opacity:1;fill-rule:evenodd"/><path style="fill:url(#linearGradient4483);fill-opacity:1;fill-rule:evenodd" d="m 37.99999,13 -7,-7 0,7 z"/><rect style="fill:#bcbcbc;fill-opacity:1;fill-rule:evenodd" width="4" height="1" x="30" y="14"/><path style="opacity:.2;fill:url(#d-3);fill-rule:evenodd" d="m 30.99999,13 7,7 0,-7 z"/><path d="m 30.99999,6 7,7 0,-7 z" style="fill:#fdfdfd;fill-opacity:1;fill-rule:evenodd"/><rect width="2" height="35" x="10" y="6" style="color:#000;clip-rule:nonzero;display:inline;overflow:visible;visibility:visible;opacity:.373;isolation:auto;mix-blend-mode:normal;color-interpolation:sRGB;color-interpolation-filters:linearRGB;solid-color:#000;solid-opacity:1;fill:#fff;fill-opacity:1;fill-rule:nonzero;stroke:none;stroke-width:1px;stroke-linecap:butt;stroke-linejoin:miter;stroke-miterlimit:4;stroke-dasharray:none;stroke-dashoffset:0;stroke-opacity:1;marker:none;color-rendering:auto;image-rendering:auto;shape-rendering:auto;text-rendering:auto;enable-background:accumulate"/><rect width="3" height="1" x="31" y="16" style="fill:#bcbcbc;fill-opacity:1;fill-rule:evenodd"/><rect width="4.03" height="1" x="29" y="-25" transform="scale(1,-1)" style="fill:#bcbcbc;fill-rule:evenodd"/><rect style="fill:#bcbcbc;fill-opacity:1;fill-rule:evenodd" width="4" height="1" x="26" y="30"/><rect style="fill:#bcbcbc;fill-opacity:1;fill-rule:evenodd" width="8" height="1" x="20" y="34"/><rect style="fill:#bcbcbc;fill-opacity:1;fill-rule:evenodd" width="7" height="1" x="23" y="36"/><rect width="3" height="1" x="23" y="-27" transform="scale(1,-1)" style="fill:#bcbcbc;fill-rule:evenodd"/><rect style="fill:#bcbcbc;fill-rule:evenodd" width="2" height="1" x="32" y="-23" transform="scale(1,-1)"/><rect width="3" height="1" x="31" y="-31" transform="scale(1,-1)" style="fill:#bcbcbc;fill-rule:evenodd"/><rect style="fill:#bcbcbc;fill-opacity:1;fill-rule:evenodd" width="6" height="1" x="28" y="32"/></svg>