<svg xmlns="http://www.w3.org/2000/svg" xmlns:xlink="http://www.w3.org/1999/xlink" viewBox="0 0 48 48"><linearGradient id="a"><stop offset="0" stop-color="#2a7fff"/><stop offset="1" stop-color="#0cf"/></linearGradient><linearGradient id="b" x1="80.723" x2="141.405" y1="192.156" y2="252.838" gradientUnits="userSpaceOnUse"><stop offset="0" stop-color="#0055d4"/><stop offset="1" stop-color="#06f" stop-opacity="0"/></linearGradient><linearGradient id="c" x1="61.163" x2="64.928" y1="105.11" y2="109.045" gradientUnits="userSpaceOnUse"><stop offset="0" stop-color="#e6e6e6"/><stop offset="1" stop-color="#b3b3b3"/></linearGradient><linearGradient id="d" x1="77.167" x2="64.372" y1="115.715" y2="112.004" gradientUnits="userSpaceOnUse"><stop offset="0" stop-color="#0cf"/><stop offset="1" stop-color="#2a7fff"/></linearGradient><linearGradient id="e" x1="68.707" x2="75.819" y1="113.065" y2="117.913" gradientUnits="userSpaceOnUse" xlink:href="#a"/><linearGradient id="f"><stop offset="0" stop-color="#fff"/><stop offset="1" stop-color="#b3b3b3"/></linearGradient><linearGradient id="g" x1="77.401" x2="68.67" y1="106.368" y2="120.358" gradientUnits="userSpaceOnUse" xlink:href="#f"/><linearGradient id="h" x1="68.229" x2="68.164" y1="112.732" y2="118.555" gradientUnits="userSpaceOnUse"><stop offset="0" stop-color="#b3b3b3"/><stop offset="1" stop-color="#fff"/></linearGradient><linearGradient id="i" x1="63.367" x2="71.136" y1="106.865" y2="104.89" gradientUnits="userSpaceOnUse" xlink:href="#f"/><linearGradient id="j" x1="66.951" x2="66.336" y1="104.461" y2="109.668" gradientUnits="userSpaceOnUse"><stop offset="0" stop-color="#ccc"/><stop offset="1" stop-color="#b3b3b3"/></linearGradient><linearGradient id="k" x1="62.961" x2="77.488" y1="115.883" y2="107.314" gradientUnits="userSpaceOnUse"><stop offset="0" stop-color="#e6e6e6"/><stop offset="1" stop-color="#fff"/></linearGradient><linearGradient id="l" x1="220.306" x2="54.439" y1="207.919" y2="42.052" gradientTransform="matrix(.44648217 0 0 .43479451 59.664951 148.26025)" gradientUnits="userSpaceOnUse" xlink:href="#a"/><linearGradient id="m" x1="68.21" x2="148.521" y1="177.751" y2="258.061" gradientUnits="userSpaceOnUse"><stop offset="0" stop-color="#59f"/><stop offset="1" stop-color="#06f"/></linearGradient><g transform="matrix(.35834457 0 0 .35834465 -14.588903 -53.834451)"><circle cx="107.687" cy="217.206" r="55.812" fill="url(#m)" stroke-width=".046"/><ellipse cx="107.687" cy="215.745" fill="url(#l)" stroke-width=".045" rx="55.812" ry="54.351"/><path fill="url(#b)" stroke-width=".046" d="m104.42761 173.43884c-3.17498 21.38886-11.196398 24.89739-26.927573 45.50887l4.506763 10.66624 38.2124 38.21262a55.812184 55.812184 0 0 0 43.27959-50.62107l-42.76116-42.76116z"/><g stroke-width=".265"><path fill="url(#c)" d="m65.428762 109.91943c-.79474-2.58086-5.285936-1.9546-6.036655-2.01063.842596-.40914 1.604061-.74639 3.341118-1.97728 3.346321-2.37122 6.889189-1.85409 8.663362-.91242-4.85033.18036-3.926305 2.76518-3.211896 4.12714-.908518.25814-2.342683.64782-2.755929.77319z" transform="matrix(4.5475751 0 0 4.6489837 -203.94378 -313.78768)"/><path fill="url(#d)" d="m77.401381 106.36805c-1.746608 2.25673-4.650524 5.30573-7.828693 5.70736-3.17817.40163-6.208039-.0433-6.909882 2.27202-.64633 2.1322 1.626883 4.12293 3.984589 3.64314 2.518769-.51257 1.974803-3.30514.597137-5.20681 1.046467-.0587.851808-.0435 2.626388-.131 2.645109 2.20549 3.521857 2.8343 8.143023 6.05209-3.561162-.36484-4.857257-.69982-7.41144-2.19429.661668 1.62462 2.075907 5.31186 2.382248 8.17285-1.47315-2.07065-2.031632-2.83161-4.314667-4.32544-2.924418-1.9135-5.29286-1.97828-6.663677-4.79745-1.367857-2.81308.442686-4.83945 3.682518-5.71701 4.629957-1.2541 8.619281-2.4431 11.712456-3.47546z" transform="matrix(4.5475751 0 0 4.6489837 -203.94378 -313.78768)"/><path fill="url(#e)" d="m67.244532 112.78376c1.046467-.0587.851808-.0435 2.626388-.131 2.645109 2.20549 3.521857 2.8343 8.143023 6.05209-4.644893-.32503-8.159344-1.66506-10.769411-5.92109z" transform="matrix(4.5475751 0 0 4.6489837 -203.94378 -313.78768)"/><path fill="url(#g)" d="m77.401381 106.36805c-1.746608 2.25673-4.650524 5.30573-7.828693 5.70736-3.17817.40163-6.208039-.0433-6.909882 2.27202-.64633 2.1322 1.626883 4.12293 3.984589 3.64314 2.518769-.51257 1.974803-3.30514.597137-5.20681 1.046467-.0587.851808-.0435 2.626388-.131 2.645109 2.20549 3.521857 2.8343 8.143023 6.05209-3.561162-.36484-4.857257-.69982-7.41144-2.19429.661668 1.62462 2.075907 5.31186 2.382248 8.17285-1.47315-2.07065-2.031632-2.83161-4.314667-4.32544-2.924418-1.9135-5.29286-1.97828-6.663677-4.79745-1.367857-2.81308.442686-4.83945 3.682518-5.71701 4.629957-1.2541 8.619281-2.4431 11.712456-3.47546z" transform="matrix(4.5475751 0 0 4.6489837 -203.94378 -313.78768)"/><path fill="url(#h)" d="m67.244532 112.78376c1.046467-.0587.851808-.0435 2.626388-.131 2.645109 2.20549 3.521857 2.8343 8.143023 6.05209-4.644893-.32503-8.159344-1.66506-10.769411-5.92109z" transform="matrix(4.5475751 0 0 4.6489837 -203.94378 -313.78768)"/><path fill="url(#i)" d="m59.392107 107.9088c.842596-.40914 1.604061-.74639 3.341118-1.97728 3.346321-2.37122 6.889189-1.85409 8.663362-.91242-4.85033.18036-4.225378 1.1257-4.243278 1.86679-3.222572-.66446-4.163494.2396-7.761202 1.02291z" transform="matrix(4.5475751 0 0 4.6489837 -203.94378 -313.78768)"/><path fill="url(#j)" d="m71.396587 105.0191c-4.85033.18036-3.926305 2.76518-3.211896 4.12714-.566006.16082-1.179475.34403-1.936109.53991-3.052938-5.32116 2.656266-6.01341 5.148005-4.66705z" transform="matrix(4.5475751 0 0 4.6489837 -203.94378 -313.78768)"/><path fill="url(#k)" d="m62.879799 116.88614c-2.373486-2.98949-1.93525-5.72962 2.712379-7.1533 4.586439-1.40494 8.716028-2.33243 11.809203-3.36479-8.347338 3.11114-18.799839 5.18999-14.521582 10.51809z" transform="matrix(4.5475751 0 0 4.6489837 -203.94378 -313.78768)"/></g></g></svg>